<svg xmlns="http://www.w3.org/2000/svg" width="130.708" height="23.483" viewBox="0 0 130.708 23.483">
  <g id="그룹_19" data-name="그룹 19" transform="translate(-515.902 -544.519)">
    <path id="패스_4" data-name="패스 4" d="M610.587,544.519h0a11.741,11.741,0,0,1-11.742,11.741h0A11.742,11.742,0,0,1,610.587,568h0a11.741,11.741,0,0,1,11.741-11.742h0A11.74,11.74,0,0,1,610.587,544.519Z"/>
    <path id="패스_5" data-name="패스 5" d="M580.865,544.519h0a11.741,11.741,0,0,1-11.741,11.741h0A11.742,11.742,0,0,1,580.865,568h0a11.742,11.742,0,0,1,11.741-11.742h0A11.741,11.741,0,0,1,580.865,544.519Z"/>
    <path id="패스_6" data-name="패스 6" d="M551.143,544.519h0A11.74,11.74,0,0,1,539.4,556.26h0A11.741,11.741,0,0,1,551.143,568h0a11.742,11.742,0,0,1,11.742-11.742h0A11.741,11.741,0,0,1,551.143,544.519Z"/>
    <line id="선_9" data-name="선 9" x2="20" transform="translate(626.61 556.26)" fill="none" stroke="#085091" stroke-miterlimit="10" stroke-width="1"/>
    <line id="선_10" data-name="선 10" x2="20" transform="translate(515.902 556.26)" fill="none" stroke="#085091" stroke-miterlimit="10" stroke-width="1"/>
  </g>
</svg>
